# xmcd CD database file
#
# Track frame offsets:
#	182
#	22905
#	46192
#	69285
#	89592
#	115832
#	142712
#	162425
#	189127
#	210522
#	242022
#	267625
#	309172
#	313707
#
# Disc length: 4559 seconds
#
# Revision: 2
# Processed by: cddbd v1.5.2PL0 Copyright (c) Steve Scherf et al.
# Submitted via: CDex 1.51
#
DISCID=b011cd0e
DTITLE=Gerry Mulligan - Jazz and Blues Collection n° 33
DYEAR=1957
DGENRE=Jazz
TTITLE0=Come Out Wherever You Are
TTITLE1=The Birth of the Blues
TTITLE2=Moonlight in Vermont
TTITLE3=Lullaby of the Leaves
TTITLE4=Open Country
TTITLE5=I Can't Get Started
TTITLE6=Frenesi
TTITLE7=Bubble, Bangle and Beads
TTITLE8=Yardbird Suite
TTITLE9=Walkin' Shoes
TTITLE10=My Funny Valentine
TTITLE11=Blues at the Roots
TTITLE12=Introduction
TTITLE13=Bernie's Tune
EXTD=YEAR: 1957
EXTT0=
EXTT1=
EXTT2=
EXTT3=
EXTT4=
EXTT5=
EXTT6=
EXTT7=
EXTT8=
EXTT9=
EXTT10=
EXTT11=
EXTT12=
EXTT13=
PLAYORDER=
